<?xml version="1.0" encoding="UTF-8" standalone="no"?>
<svg
   xmlns:dc="http://purl.org/dc/elements/1.1/"
   xmlns:cc="http://creativecommons.org/ns#"
   xmlns:rdf="http://www.w3.org/1999/02/22-rdf-syntax-ns#"
   xmlns:svg="http://www.w3.org/2000/svg"
   xmlns="http://www.w3.org/2000/svg"
   version="1.1"
   id="svg32400"
   viewBox="0 0 641.62054 506.49303"
   height="506.49304"
   width="641.62054">
  <defs
     id="defs32402" />
  <metadata
     id="metadata32405">
    <rdf:RDF>
      <cc:Work
         rdf:about="">
        <dc:format>image/svg+xml</dc:format>
        <dc:type
           rdf:resource="http://purl.org/dc/dcmitype/StillImage" />
        <dc:title></dc:title>
      </cc:Work>
    </rdf:RDF>
  </metadata>
  <g
     transform="translate(120.85647,-361.78647)"
     id="layer1">
    <path
       id="path32961"
       d="m 349.24128,866.77235 c -1.6088,-0.99445 -4.9838,-2.30203 -7.5,-2.90575 -2.5162,-0.60372 -6.355,-2.59231 -8.5307,-4.41909 l -3.9558,-3.32142 1.8454,-2.88863 c 4.0416,-6.32602 9.06,-11.697 12.1265,-12.97824 2.0571,-0.85952 5.6114,-1.19227 9.7911,-0.91663 4.045,0.26675 7.4414,-0.0331 8.8552,-0.78182 4.9905,-2.64278 11.7935,-7.87644 11.7935,-9.07289 0,-0.69568 1.35,-2.55825 3,-4.13905 1.65,-1.5808 3,-3.76706 3,-4.85835 0,-1.09129 0.6293,-2.6946 1.3984,-3.56291 3.914,-4.41856 18.7935,-34.83153 20.0977,-41.07874 0.4019,-1.925 1.7656,-5.75 3.0305,-8.5 2.42,-5.26115 3.0353,-9.0127 4.0186,-24.5 0.686,-10.80459 -0.6662,-19.05202 -5.0824,-31 l -2.7722,-7.5 -0.095,-30.5 -0.095,-30.5 -2.1789,-0.31023 c -1.1984,-0.17063 -5.0234,0.79768 -8.5,2.15181 -15.1622,5.9056 -31.5414,10.84468 -39.6094,11.94404 -10.4757,1.42746 -29.011,1.40326 -46.7117,-0.061 -16.0413,-1.32696 -16.1571,-1.26419 -14.5773,7.89933 0.6045,3.50681 1.5636,10.20102 2.1312,14.87602 0.5676,4.675 1.4947,9.9537 2.0602,11.73045 0.5654,1.77675 0.7258,3.71949 0.3564,4.3172 -0.3694,0.59772 -0.1986,3.86901 0.3796,7.26955 0.5781,3.40054 1.5749,12.0328 2.2151,19.1828 0.6401,7.15 1.612,14.575 2.1596,16.5 0.5476,1.925 1.346,5.75 1.7743,8.5 1.8222,11.70238 6.1438,35.23389 6.9787,38 0.8577,2.8417 2.1694,9.44395 3.8741,19.5 0.4195,2.475 1.3635,5.60265 2.0978,6.95033 2.1211,3.89295 0.8645,31.92381 -1.737,38.74851 -1.0899,2.85937 -1.8062,5.37434 -1.5917,5.58883 0.2145,0.2145 -1.75,2.18035 -4.3655,4.36857 -4.4824,3.75005 -5.4295,4.08316 -16.4892,5.79933 -7.072,1.0974 -13.42859,1.55395 -15.99998,1.14918 -13.05687,-2.05534 -13.97135,-2.34821 -17.09951,-5.47637 l -3.16285,-3.16285 2.79744,-5.34304 c 4.08603,-7.8042 7.6875,-10.8932 12.91152,-11.07428 4.9129,-0.1703 12.39148,-3.6124 17.42688,-8.02094 2.9678,-2.59833 3.6153,-3.99488 4.5699,-9.85629 0.829,-5.09028 0.8149,-8.78214 -0.055,-14.5 -0.6422,-4.21904 -1.1699,-9.02098 -1.1727,-10.67098 -0.01,-4.91132 -6.5693,-28.0436 -9.9267,-35 -3.12782,-6.48069 -4.05789,-10.4334 -4.08765,-17.37212 -0.0289,-6.72717 -0.52252,-11.35608 -2.67985,-25.12788 -0.30155,-1.925 -1.16458,-4.38763 -1.91785,-5.47251 -0.75327,-1.08487 -1.37126,-2.88487 -1.37332,-4 -0.002,-1.11512 -0.96931,-3.60249 -2.14945,-5.52749 -3.62429,-5.91177 -7.58642,-16.45263 -8.31265,-22.11493 -0.84018,-6.55076 -6.9187,-19.88504 -9.06475,-19.88504 -2.33297,0 -3.04588,3.12099 -4.91109,21.5 -1.65782,16.33546 -2.44773,32.13496 -2.99976,60 -0.14164,7.15 -0.7864,16.6 -1.4328,21 -3.40267,23.16202 -3.41906,24.87692 -0.48257,50.5 0.62275,5.43401 -2.63652,18.77751 -5.60479,22.94606 -1.12112,1.57447 -2.04504,3.91821 -2.05315,5.20831 -0.008,1.2901 -0.66379,3.47063 -1.45706,4.84563 -0.79328,1.375 -1.86928,3.4 -2.39113,4.5 -0.52184,1.1 -2.77069,3.75883 -4.99743,5.90851 l -4.04862,3.90851 -18.29551,-0.56027 c -10.06253,-0.30814 -20.72452,-0.22661 -23.69331,0.18118 -5.05199,0.69393 -5.61255,0.55288 -8.75,-2.20184 -1.84371,-1.6188 -3.35909,-3.90916 -3.36751,-5.08968 -0.008,-1.18053 -0.4164,-2.77997 -0.90661,-3.55432 -2.07411,-3.2763 6.7423,-14.46984 12.33793,-15.66457 1.6962,-0.36216 3.63134,-1.09903 4.30032,-1.63749 1.15574,-0.93026 6.62722,-0.66718 16.05162,0.7718 4.08518,0.62376 4.43846,0.46512 8.25,-3.70464 2.19013,-2.39597 3.98205,-4.81454 3.98205,-5.37461 0,-0.56007 1.05505,-2.58527 2.34455,-4.50045 4.97233,-7.38493 8.05796,-24.10651 8.11602,-43.98213 0.0321,-10.97797 -0.30983,-14.34068 -1.83008,-18 -2.1143,-5.08923 -2.49506,-17.45144 -0.76999,-25 0.67094,-2.93592 0.72879,-9.36604 0.16644,-18.5 -2.61363,-42.452 -3.97417,-58.53231 -6.09185,-72 -0.5189,-3.3 -1.31407,-8.38728 -1.76705,-11.30506 -1.15325,-7.42839 -4.10557,-10.16977 -11.94817,-11.09449 -3.32655,-0.39223 -6.64938,-1.20873 -7.38407,-1.81444 -0.73469,-0.60572 -5.1608,-3.10366 -9.8358,-5.55098 -4.675,-2.44733 -10.75,-5.64274 -13.5,-7.10093 -6.85993,-3.63747 -13.28206,-9.2989 -20.28766,-17.8846 -6.05919,-7.42584 -9.21234,-12.57531 -9.21234,-15.04485 0,-1.54682 -3.10869,-4.70465 -4.63144,-4.70465 -0.84685,0 -0.38545,8.31548 0.6381,11.5 0.17678,0.55 -0.0349,2.27217 -0.47037,3.82705 -0.48021,1.71459 -0.35099,3.68211 0.32839,5 0.6161,1.19512 1.53637,8.24795 2.04506,15.67295 0.76728,11.19941 0.67943,13.88343 -0.51548,15.75 -1.79114,2.79795 -3.75315,2.8427 -7.50498,0.17116 -5.13967,-3.65977 -5.88928,-6.42366 -5.88928,-21.7145 0,-7.64096 0.29744,-19.42438 0.66097,-26.18537 0.57934,-10.77447 0.88811,-12.35212 2.5,-12.77364 2.70821,-0.70821 2.27714,-4.13058 -0.66097,-5.24765 -1.74608,-0.66386 -2.5,-1.70405 -2.5,-3.44927 0,-2.45156 0.14644,-2.49845 7.75,-2.48163 12.80941,0.0283 20.19796,-3.67232 30.75,-15.4016 8.25091,-9.17142 10.17863,-11.98618 10.90129,-15.9175 0.56037,-3.0484 1.12026,-3.75 2.99261,-3.75 1.69778,0 4.01907,2.19016 8.83014,8.33133 7.60512,9.70769 12.29536,12.4772 23.27596,13.74412 9.7166,1.12107 13.48112,0.31209 20.70131,-4.44867 7.34774,-4.84485 10.87779,-9.66244 13.21935,-18.0409 1.77807,-6.36219 4.40012,-12.30795 7.34219,-16.64916 9.70877,-14.32592 11.23715,-17.03694 11.23715,-19.93223 0,-4.50953 -2.84484,-19.16732 -5.53225,-28.50449 -5.42821,-18.85979 -6.43924,-26.36838 -4.04294,-30.02559 0.89171,-1.36093 2.2889,-2.47441 3.10486,-2.47441 2.458,0 5.92716,4.8646 6.64391,9.31638 1.21238,7.53013 2.66517,13.25222 5.71198,22.49773 4.03863,12.25517 4.60986,13.18589 8.09292,13.18589 1.86254,0 3.46209,0.79091 4.44891,2.1998 1.36685,1.95138 1.37325,2.45559 0.0567,4.46482 -0.81626,1.24576 -1.4841,4.1783 -1.4841,6.51676 0,2.33847 -0.72966,6.16233 -1.62146,8.49748 -0.92228,2.41495 -1.30328,5.01659 -0.88357,6.03343 0.60997,1.47782 0.82699,1.5277 1.25194,0.28771 0.28274,-0.825 1.20159,-2.28916 2.04191,-3.25369 0.94643,-1.08635 1.49313,-3.55985 1.43653,-6.5 -0.05,-2.61047 0.5817,-6.75738 1.4042,-9.21535 1.9409,-5.80033 1.9115,-15.80024 -0.06,-20.51973 -0.8557,-2.04803 -1.3105,-4.12082 -1.0105,-4.60619 0.8525,-1.37933 -1.61422,-21.00221 -3.13068,-24.90504 -2.0073,-5.16604 -3.58321,-15.24478 -2.54587,-16.28212 0.48796,-0.48796 1.95161,-0.73661 3.25254,-0.55254 2.16831,0.30678 2.39051,0.86859 2.66721,6.74281 0.2115,4.49117 0.8846,7.14906 2.25,8.88486 1.0715,1.36219 1.9481,3.9195 1.9481,5.68292 0,1.76341 0.7255,5.41523 1.6122,8.11514 1.8469,5.62336 2.5766,30.27825 1.1664,39.40893 -0.4672,3.025 -1.0656,9.1 -1.3298,13.5 -0.2642,4.4 -0.9774,10.82909 -1.5848,14.28687 -0.6074,3.45778 -1.1628,12.9513 -1.2342,21.0967 -0.089,10.12691 -0.5211,15.28119 -1.3673,16.30054 -1.0165,1.22457 -0.7764,1.92147 1.345,3.90331 1.4204,1.32692 3.2264,3.65008 4.0132,5.16258 1.5027,2.88842 4.165,3.56436 6.1643,1.56507 0.9132,-0.91324 2.8507,-0.36806 8.45,2.37769 6.2618,3.07065 13.4008,5.24476 23.8436,7.26135 1.5264,0.29476 3.0718,1.58052 3.7874,3.15114 1.3006,2.8545 2.634,2.45768 2.634,-0.78388 0,-2.26277 5.8231,-4.78074 11.1152,-4.80631 1.7133,-0.008 4.1903,-0.86078 5.5044,-1.89443 1.314,-1.03366 3.2872,-2.12847 4.3848,-2.43291 1.9174,-0.53184 -1.2024,-0.39859 -21.0798,0.90037 -11.1553,0.72899 -17.0588,-0.80089 -25.2427,-6.54151 -3.1728,-2.22562 -6.6492,-4.05336 -7.7253,-4.06164 -2.1976,-0.0169 -9.0576,-2.25261 -10.095,-3.29002 -1.0261,-1.02615 -2.5838,-9.62904 -2.6608,-14.69492 -0.1064,-7.00965 2.3254,-30.30124 3.3657,-32.23643 0.5135,-0.95504 0.9403,-4.10504 0.9486,-7 0.01,-2.89496 0.6635,-7.06357 1.4561,-9.26357 0.7926,-2.2 1.4608,-5.8225 1.4849,-8.05 0.024,-2.2275 0.5356,-4.54169 1.1366,-5.14264 0.7902,-0.79019 0.7603,-1.71356 -0.1079,-3.33578 -0.7342,-1.3719 -1.0349,-4.8121 -0.7741,-8.85736 0.3942,-6.11616 -0.4537,-11.87285 -3.1467,-21.36422 -2.6012,-9.16791 -3.0177,-11.65712 -3.0401,-18.17126 -0.017,-4.82527 -0.4939,-7.44065 -1.576,-8.63638 -1.4185,-1.56745 -1.3208,-1.89712 1.1348,-3.82874 3.1427,-2.47202 8.6224,-2.77643 10.445,-0.58025 0.7,0.84335 1.611,4.55585 2.0246,8.25 1.176,10.50393 2.8763,20.21457 3.8619,22.05634 0.495,0.92487 0.6744,2.86154 0.3987,4.30372 -0.2756,1.44217 -0.01,2.92644 0.593,3.29837 0.6018,0.37193 1.0941,2.35968 1.0941,4.41722 0,4.49942 1.4212,6.14098 5.3166,6.14098 2.6828,0 2.8611,-0.22044 2.2247,-2.75 -0.3805,-1.5125 -1.0162,-5.38074 -1.4126,-8.59609 -0.483,-3.9184 -1.2826,-6.16053 -2.4247,-6.79969 -1.9255,-1.07759 -2.2796,-4.38042 -0.5821,-5.42955 0.724,-0.44743 0.9136,-2.50795 0.5346,-5.80902 -0.3231,-2.81361 -0.2224,-6.70524 0.2237,-8.64808 0.5566,-2.42422 0.4282,-3.8901 -0.4094,-4.67251 -0.6712,-0.62704 -1.5278,-3.18945 -1.9034,-5.69426 -0.3756,-2.5048 -1.1069,-4.81623 -1.6251,-5.13651 -3.3529,-2.07218 2.6873,-11.12406 9.3788,-14.05514 2.2984,-1.00678 5.5805,-2.86763 7.2935,-4.13521 4.4636,-3.30299 24.7336,-10.38676 32.3854,-11.31781 3.575,-0.43499 8.5331,-1.30521 11.0181,-1.93382 2.4849,-0.6286 6.9849,-1.00328 10,-0.83261 l 5.482,0.3103 0,16.89944 c 0,19.29503 -0.52,21.13038 -5.1288,18.10416 -1.5792,-1.03692 -4.0792,-1.79452 -5.5555,-1.68357 -3.2855,0.2469 -4.7182,-1.68698 -2.4685,-3.33198 0.909,-0.66469 1.6528,-1.48487 1.6528,-1.82261 0,-1.16171 -5.9043,-3.66544 -8.6439,-3.66544 -1.5087,0 -6.4615,-1.15886 -11.0061,-2.57525 -8.7808,-2.73666 -12.85,-2.87116 -12.85,-0.42475 0,0.825 -1.125,2.21457 -2.5,3.08794 -1.375,0.87337 -3.1176,2.33587 -3.8725,3.25 -1.1632,1.40873 -1.1632,1.65721 0,1.63026 0.7549,-0.0175 2.246,-0.6925 3.3136,-1.5 1.3659,-1.0331 4.5536,-1.4682 10.7566,-1.4682 8.1569,0 8.9779,0.18678 10.9892,2.5 1.1956,1.375 2.7541,2.5 3.4635,2.5 0.7093,0 2.2878,1.35 3.5077,3 1.2199,1.65 2.7477,3 3.3951,3 0.6474,0 2.2768,0.86508 3.621,1.9224 1.3442,1.05732 3.9923,2.06982 5.8848,2.25 3.3985,0.32355 3.4509,0.40171 4.2417,6.3276 0.4404,3.3 0.933,14.775 1.0946,25.5 0.1616,10.725 0.8711,22.30603 1.5765,25.73562 1.0279,4.9967 1.0351,6.83336 0.036,9.2441 -1.0499,2.53482 -0.9912,3.39747 0.3728,5.4792 1.9159,2.92407 2.1974,12.56251 0.4188,14.34108 -0.66,0.66 -2.2191,1.2 -3.4648,1.2 -2.9802,0 -4.7878,3.28572 -3.3183,6.0316 l 1.0873,2.0316 2.6193,-2.06028 c 1.6446,-1.2937 2.9708,-1.70864 3.5643,-1.1152 1.408,1.40802 2.0499,18.15836 0.8186,21.36228 -0.8893,2.31398 -1.6554,2.75691 -4.8316,2.79355 -2.0761,0.0239 -5.7204,0.41959 -8.0984,0.87919 -3.7377,0.72239 -4.5894,0.5503 -6.2853,-1.27001 l -1.9617,-2.10564 -3.0154,3.22646 c -2.9568,3.16384 -3.1866,3.22645 -11.8422,3.22645 -6.4505,0 -9.1476,-0.38652 -10.0184,-1.43572 -3.0134,-3.63098 -13.7712,-2.40016 -15.6093,1.78588 -0.5192,1.18241 -2.0165,2.30149 -3.3272,2.48685 -2.0975,0.2966 -2.3222,0.0174 -1.8736,-2.32882 0.7308,-3.82296 -1.823,-4.3848 -5.0802,-1.11768 -3.363,3.37334 -2.3157,4.16221 6.7327,5.07109 3.6324,0.36485 8.4043,1.26756 10.6043,2.00602 8.8485,2.97013 15.496,3.93558 18.8206,2.7334 1.7511,-0.63319 7.1354,-1.45501 11.9653,-1.82626 4.8299,-0.37125 9.018,-1.05745 9.3068,-1.52488 0.2889,-0.46744 2.2776,-0.84988 4.4192,-0.84988 2.1417,0 4.9276,-0.45395 6.191,-1.00878 1.2634,-0.55483 5.4307,-1.34233 9.2606,-1.75 6.7355,-0.71694 6.9935,-0.84549 7.8754,-3.92381 0.5014,-1.75042 0.5631,-4.45042 0.137,-6 l -0.7747,-2.81741 -1.1909,4 c -1.0352,3.47736 -1.571,4 -4.1006,4 -3.2988,0 -3.2142,0.66064 -1.8787,-14.67468 0.6839,-7.8542 0.5527,-9.01825 -1.3878,-12.30716 -2.6737,-4.53155 -2.7024,-6.70213 -0.1196,-9.03954 2.3512,-2.12784 2.9065,-1.66935 5.4764,4.52138 2.8542,6.87582 3.5,6.93579 3.5,0.325 0,-8.62641 -0.9011,-12.41176 -2.8779,-12.08947 -1.7795,0.29012 -1.8948,-2.12672 -0.5721,-11.98553 0.4891,-3.64497 0.3598,-5.25 -0.4228,-5.25 -0.62,0 -1.1272,1.0882 -1.1272,2.41821 0,5.80584 -3.7007,7.72902 -5.8395,3.03474 -1.6019,-3.51581 -1.4687,-4.89914 0.8357,-8.67878 1.098,-1.80079 1.998,-4.28667 2,-5.52417 0,-2.70153 0.8311,-2.86197 2.5762,-0.5 1.0286,1.39224 1.5493,1.49716 2.547,0.51321 1.0049,-0.99098 0.9087,-2.33251 -0.4837,-6.75 -1.6808,-5.33201 -2.8447,-6.60214 -4.1357,-4.51321 -0.34,0.55 -1.2665,1 -2.0591,1 -1.8934,0 -1.8531,-3.41306 0.059,-5 2.0984,-1.74151 1.8686,-3.88099 -0.6347,-5.90802 -1.727,-1.39846 -2.112,-2.73648 -2.0158,-7.00566 0.065,-2.90237 -0.308,-6.07461 -0.8297,-7.04941 -0.5217,-0.9748 -1.2242,-6.74398 -1.5611,-12.8204 -0.5073,-9.14848 -0.2652,-12.48099 1.4082,-19.38227 2.1938,-9.04775 3.3272,-14.99896 3.56,-18.69246 0.2817,-4.46825 7.7519,-7.04125 10.5732,-3.64178 0.6847,0.825 2.2023,1.53289 3.3724,1.57309 1.1702,0.0402 3.4776,0.94114 5.1276,2.00208 1.65,1.06095 4.3591,2.56591 6.0203,3.34436 5.1281,2.40313 6.8643,5.10788 6.8643,10.69384 0,2.89268 -0.5209,5.35283 -1.2257,5.78838 -1.7745,1.09675 -3.4287,10.33255 -3.5468,19.80318 -0.1316,10.55833 0.8084,11.62962 6.5195,7.42967 4.0866,-3.00535 8.1664,-3.93166 10.4352,-2.36929 0.5868,0.40408 2.9418,3.24063 5.2333,6.30344 l 4.1665,5.56875 -0.1774,10.24219 c -0.098,5.6332 -0.5401,10.46632 -0.9833,10.74026 -0.9321,0.57607 -1.1054,20.43608 -0.1989,22.79826 1.1174,2.912 2.393,1.62299 2.393,-2.41821 l 0,-4 5.75,0.0394 c 5.0498,0.0346 15.1968,1.86478 26.25,4.73457 9.4499,2.45353 14.3561,7.62044 14.2445,15.00136 -0.095,6.26181 -1.5559,8.44871 -7.5608,11.31515 -6.3322,3.02275 -6.9982,5.63595 -3.376,13.24645 1.3516,2.83968 2.7028,6.51918 3.0026,8.17668 0.6579,3.63701 7.8814,16.38906 14.7203,25.98637 6.7547,9.47925 9.853,15.74518 9.7401,19.69786 -0.1157,4.04932 2.1219,9.84866 4.4793,11.60884 0.9625,0.71869 1.75,1.97202 1.75,2.78519 0,0.81316 0.6988,2.54504 1.5529,3.84862 1.404,2.14273 1.404,2.72677 0,6.08694 -0.8541,2.04424 -1.5529,5.4763 -1.5529,7.62679 0,2.1505 -0.675,5.5255 -1.5,7.5 -0.825,1.97451 -1.5,4.57005 -1.5,5.76788 0,1.19784 -0.3757,2.60538 -0.8348,3.12788 -4.0896,4.65445 -5.4799,19.95341 -3.8991,42.90497 1.2021,17.45225 1.2221,19.84941 0.2716,32.54503 -0.4263,5.69444 -0.1585,11.14053 0.8113,16.5 1.8657,10.3098 4.5968,20.73916 5.7479,21.95 0.4967,0.5225 0.9031,1.74473 0.9031,2.71607 0,1.6027 1.8575,6.59122 4.122,11.07036 0.4829,0.95504 0.878,2.17255 0.878,2.70559 0,0.53304 1.17,2.67665 2.6001,4.76357 1.43,2.08693 3.0674,4.91941 3.6386,6.29441 1.4761,3.55317 0.9256,26.77718 -0.723,30.5 -0.7307,1.65 -1.5955,6.22782 -1.9219,10.17292 -0.6016,7.27064 -1.5994,12.98022 -4.1642,23.82708 -0.7803,3.3 -1.3908,8.7 -1.3566,12 0.034,3.3 -0.5857,7.575 -1.3775,9.5 -0.8254,2.00673 -1.4721,7.04048 -1.5159,11.79836 -0.084,9.11889 -1.9736,13.70992 -6.9985,17.00271 -3.4767,2.27816 -12.8068,2.48449 -27.1811,0.60108 -17.3965,-2.27939 -17.7686,-2.35677 -18.3265,-3.81052 -1.0482,-2.73166 2.1817,-9.12855 6.4827,-12.83893 4.1634,-3.59165 4.6477,-3.7474 11.6605,-3.75 9.1878,-0.003 12.5077,-2.21841 16.9353,-11.2993 2.7194,-5.57735 3.2077,-7.97218 4.2317,-20.75414 0.6366,-7.94709 1.4054,-20.74926 1.7084,-28.44926 l 0.5509,-14 -4.0666,-8 c -2.2366,-4.4 -4.3846,-9.35 -4.7732,-11 -0.8249,-3.50217 -8.0284,-14 -9.6067,-14 -1.6616,0 -4.2592,6.39123 -6.9092,17 -0.5496,2.2 -1.7482,5.125 -2.6636,6.5 -0.9155,1.375 -2.3528,3.85 -3.1941,5.5 -3.0144,5.91194 -5.2674,3.22922 -8.0572,-9.59389 -2.1897,-10.06492 -1.3088,-23.77442 1.9093,-29.71379 0.6877,-1.26923 1.3238,-5.76923 1.4135,-10 0.146,-6.88464 -0.1207,-8.09663 -2.5396,-11.5429 -1.4865,-2.11782 -2.9867,-5.36428 -3.3338,-7.21437 -0.9577,-5.10498 -2.9376,-6.23862 -5.9512,-3.40751 -1.3588,1.2766 -2.4706,3.27765 -2.4706,4.44677 0,1.16913 -0.3905,2.55319 -0.8677,3.07569 -0.4773,0.5225 -1.6424,4.325 -2.5891,8.45 -1.6915,7.3699 -1.6908,13.84505 0,27.62974 0.5332,4.33906 0.2314,5.8792 -1.958,9.99205 -1.4237,2.67426 -2.5884,5.35863 -2.5884,5.96527 0,0.60663 -0.8886,1.90706 -1.9745,2.88984 -1.086,0.98278 -2.2729,2.74002 -2.6376,3.90498 -0.3647,1.16497 -1.5012,3.19131 -2.5255,4.50298 -1.0243,1.31167 -1.8624,3.14573 -1.8624,4.07568 0,2.05231 -3.6551,5.55315 -6.7918,6.50518 -1.6682,0.50631 -2.1305,1.20389 -1.6989,2.56362 0.7852,2.47393 -4.1411,16.39903 -7.6302,21.56856 -1.5213,2.25384 -3.9315,4.8616 -5.356,5.795 -1.4246,0.93341 -2.4725,2.23936 -2.3286,2.9021 0.1438,0.66275 -0.7563,3.29099 -2.0003,5.84054 -1.244,2.54955 -2.6807,7.20927 -3.1927,10.35495 -0.512,3.14567 -1.3991,6.28366 -1.9715,6.9733 -0.5724,0.68965 -1.901,3.75457 -2.9525,6.81095 -2.9792,8.65898 -10.084,20.0406 -15.5775,24.95448 l -5,4.4724 -12,0.51499 c -10.4084,0.44668 -12.388,0.27516 -14.9252,-1.29309 z m 26.9063,-6.90267 c 1.6587,-1.83283 1.667,-2.02679 0.1119,-2.62354 -1.9598,-0.75204 -2.12,-0.62793 -3.0362,2.35269 -0.8543,2.77926 0.5376,2.90817 2.9243,0.27085 z m -113.67281,-6.09585 c -0.19708,-0.59125 -0.78583,-1.075 -1.30833,-1.075 -0.5225,0 -1.11125,0.48375 -1.30833,1.075 -0.19709,0.59125 0.39166,1.075 1.30833,1.075 0.91667,0 1.50542,-0.48375 1.30833,-1.075 z m 40.19171,0.075 c 0,-0.55 -0.9,-1 -2,-1 -1.1,0 -2,0.45 -2,1 0,0.55 0.9,1 2,1 1.1,0 2,-0.45 2,-1 z m 71,-10 c 0,-2.75 -0.45,-5 -1,-5 -1.1029,0 -1.3982,8.26847 -0.3334,9.33333 1.193,1.19293 1.3334,0.7366 1.3334,-4.33333 z m 126.5,0 c 0,-0.73333 -0.5625,-1.52083 -1.25,-1.75 -0.7436,-0.24786 -1.25,0.46111 -1.25,1.75 0,1.28889 0.5064,1.99786 1.25,1.75 0.6875,-0.22917 1.25,-1.01667 1.25,-1.75 z m -270.81693,-19.1875 c -0.31922,-0.79773 -0.55618,-0.56078 -0.60416,0.60417 -0.0434,1.05416 0.19293,1.64479 0.52522,1.3125 0.33229,-0.33229 0.36781,-1.1948 0.0789,-1.91667 z m 203.92103,-91.54167 c -1.0165,-1.01651 -1.8552,0.51389 -1.0212,1.86338 0.63,1.01942 0.8656,1.02021 1.2043,0.004 0.2316,-0.69479 0.1492,-1.53513 -0.1831,-1.86742 z M 232.66644,696.34883 c 0,-1.375 -0.45,-2.5 -1,-2.5 -0.55,0 -1,1.125 -1,2.5 0,1.375 0.45,2.5 1,2.5 0.55,0 1,-1.125 1,-2.5 z m 212.00004,-15.5 c 0,-1.1 -0.45,-2 -1,-2 -0.55,0 -1,0.9 -1,2 0,1.1 0.45,2 1,2 0.55,0 1,-0.9 1,-2 z m -6.6384,-53.5 c 0.3439,-0.89614 0.01,-1.5 -0.834,-1.5 -1.6447,0 -2.7594,1.43489 -1.8338,2.36052 1.0538,1.0538 2.0574,0.73007 2.6678,-0.86052 z M 222.66644,612.40785 c 0,-0.24254 -0.45,-0.7191 -1,-1.05902 -0.55,-0.33992 -1,-0.14148 -1,0.44098 0,0.58246 0.45,1.05902 1,1.05902 0.55,0 1,-0.19844 1,-0.44098 z m 184.25394,-4.80902 c 0.2573,-0.6875 0.193,-3.2691 -0.143,-5.73689 -0.4324,-3.17554 -1.1233,-4.58538 -2.364,-4.8239 -2.5303,-0.48646 -3.1713,2.22363 -1.7372,7.3454 1.1995,4.28427 3.2598,5.84517 4.2442,3.21539 z m -25.4539,-0.95 c 1.7924,-1.79246 1.452,-4.16148 -0.8,-5.56793 -1.1,-0.68696 -2,-1.85046 -2,-2.58556 0,-1.70257 -3.4442,-4.86906 -4.3312,-3.98203 -1.6154,1.61546 -0.5464,7.32763 1.9201,10.25879 2.8696,3.41037 3.4635,3.62427 5.2111,1.87673 z m 13.6223,0.32567 c 0.2972,-0.48089 -0.7747,-3.27921 -2.3821,-6.21849 -4.0676,-7.4382 -3.44,-7.90718 10.5822,-7.90718 11.3338,0 11.3776,0.009 11.3776,2.39301 0,1.31616 -0.675,2.65203 -1.5,2.96862 -1.9806,0.76002 -1.9067,3.53155 0.155,5.80963 2.3494,2.5961 3.345,2.27231 3.345,-1.08793 0,-1.60416 0.5625,-3.10883 1.25,-3.34369 0.9949,-0.33988 0.9992,-1.10659 0.021,-3.7567 -1.8807,-5.09706 -0.2777,-6.37303 7.045,-5.60765 5.3718,0.56146 5.9201,0.43621 6.4175,-1.46592 0.4629,-1.77013 1.054,-1.98413 3.9697,-1.43714 1.8842,0.35348 5.894,0.13028 8.9108,-0.49598 5.8501,-1.21449 8.3855,-0.3626 8.3855,2.81745 0,0.85185 0.7875,2.42063 1.75,3.48617 0.9625,1.06554 1.75,3.35098 1.75,5.07874 0,2.53437 0.4532,3.20554 2.345,3.47338 3.2841,0.46496 8.155,-1.75265 8.155,-3.71276 0,-0.90098 -0.9332,-2.22094 -2.0738,-2.93327 -1.1406,-0.71232 -2.7216,-2.84556 -3.5134,-4.74054 -0.7918,-1.89498 -1.872,-3.44542 -2.4005,-3.44542 -0.5285,0 -1.6239,-1.28222 -2.4344,-2.84939 -1.6161,-3.1252 -0.8485,-3.11562 -15.3278,-0.19126 -2.6125,0.52764 -7.8399,1.43344 -11.6164,2.01289 -3.7765,0.57945 -7.2117,1.267 -7.6339,1.5279 -0.4221,0.26089 -5.4828,1.17488 -11.2461,2.03109 -8.4306,1.25249 -11.727,1.33559 -16.8661,0.42522 -3.5131,-0.62233 -8.7583,-1.37354 -11.656,-1.66934 -5.9347,-0.60585 -6.7036,-1.32525 -6.72,-6.28711 -0.017,-5.07585 -2.766,-4.70246 -3.6815,0.5 -0.6121,3.47807 -0.3787,4.29358 1.7888,6.25 1.5611,1.40915 3.7712,2.25 5.9139,2.25 3.7435,0 5.5254,1.89025 7.5837,8.04457 1.1262,3.36729 5.5014,8.95543 7.0116,8.95543 0.4147,0 0.9971,-0.39345 1.2943,-0.87433 z m 43.3882,-2.87567 c -0.2149,-1.11902 -1.3113,-1.78622 -3.0407,-1.85046 -1.4875,-0.0553 -3.3942,-0.67286 -4.2372,-1.37245 -1.0326,-0.85702 -1.5326,-0.90837 -1.5326,-0.1574 0,0.99285 6.2149,4.74224 8.3233,5.02133 0.4528,0.0599 0.6721,-0.67852 0.4872,-1.64102 z m 5.2366,-11.60285 c -1.4934,-1.49345 -1.9435,-0.52693 -1.3043,2.80131 0.5603,2.91794 0.5753,2.92395 1.4422,0.58048 0.5429,-1.46783 0.4905,-2.75336 -0.1379,-3.38179 z m -12.0471,1.35285 c 0,-0.55 -0.45,-1 -1,-1 -0.55,0 -1,0.45 -1,1 0,0.55 0.45,1 1,1 0.55,0 1,-0.45 1,-1 z m -31.8165,-11.71045 c 0.2183,-1.86999 1.0325,-2.87776 2.6255,-3.25 4.287,-1.00175 2.2977,-2.53468 -4.3637,-3.36261 -7.9409,-0.98696 -8.8637,-0.70229 -10.9781,3.38651 -2.1398,4.13788 -0.6549,5.94478 2.9462,3.5852 3.2824,-2.1507 4.3151,-2.07937 5.0866,0.35135 0.9714,3.06066 4.3023,2.55539 4.6835,-0.71045 z m 16.5191,-1.69281 c 2.5776,-2.16887 3.0971,-2.26985 5.3267,-1.03543 3.3541,1.85692 3.5352,1.82098 6.4014,-1.27007 1.6318,-1.75977 2.1268,-2.94664 1.4131,-3.38776 -1.3822,-0.85424 -9.0221,0.0534 -10.2938,1.22286 -0.5225,0.48051 -2.8992,0.87366 -5.2814,0.87366 -4.7,0 -6.4575,1.86262 -4.2581,4.51273 1.7321,2.087 3.3935,1.85958 6.6921,-0.91599 z m -84.2169,0.42633 c 1.0031,-1.62297 -1.3897,-8.77225 -3.1638,-9.45303 -2.6064,-1.00016 -3.3884,0.66574 -2.6933,5.73724 0.5547,4.04704 0.9604,4.69272 2.9483,4.69272 1.2678,0 2.5767,-0.43962 2.9088,-0.97693 z m 20.5143,0.38466 c 0,-0.32575 -0.9,-1.73644 -2,-3.13486 -1.1909,-1.51392 -2,-4.05678 -2,-6.28528 0,-3.90082 -2.0758,-6.67683 -4.0707,-5.44391 -1.3836,0.85511 -0.3666,12.22458 1.2699,14.19642 1.0339,1.24571 6.8008,1.81185 6.8008,0.66763 z m -164.00004,-2.46675 c 0,-0.51754 -0.675,-0.94098 -1.5,-0.94098 -1.54641,0 -1.9867,1.17996 -0.86052,2.30615 0.79893,0.79893 2.36052,-0.10419 2.36052,-1.36517 z m 179.00004,-3.67126 c 0,-0.88673 -0.7308,-2.41975 -1.624,-3.40671 -0.9391,-1.03767 -1.6771,-3.70417 -1.75,-6.32264 -0.069,-2.49049 -0.351,-4.5166 -0.626,-4.50246 -1.818,0.0934 -4.1812,3.30366 -4.6758,6.35157 -0.5239,3.22835 -0.1916,3.96224 3.2007,7.06954 3.8286,3.50684 5.4751,3.75063 5.4751,0.8107 z m 77,1.25596 c 0,-0.81088 -1.2955,-2.14423 -2.8789,-2.96301 -3.4762,-1.79765 -4.1854,-3.39205 -3.4698,-7.80139 0.3861,-2.37912 0.073,-3.74534 -1.0777,-4.70017 -0.8921,-0.74036 -1.7765,-1.16949 -1.9655,-0.95361 -0.1889,0.21587 -0.5762,3.43 -0.8607,7.1425 -0.4957,6.46989 -0.4246,6.75 1.7127,6.75 1.2265,0 3.0444,0.9 4.0399,2 2.1252,2.34837 4.5,2.62578 4.5,0.52568 z m -153.1848,-4.81676 c 0.4135,-2.13153 -3.3983,-10.70892 -4.759,-10.70892 -1.5012,0 -1.3092,2.90127 0.5537,8.36856 1.5571,4.56992 3.557,5.68288 4.2053,2.34036 z m 87.2571,0.54108 c 0.04,-0.4125 0.2153,-2.325 0.39,-4.25 0.1747,-1.925 0.4796,-4.33772 0.6776,-5.36161 0.4327,-2.23733 -2.2266,-4.20284 -4.504,-3.32892 -2.079,0.79778 -2.079,3.96348 -1e-4,9.4071 1.4493,3.79493 3.2343,5.63024 3.4365,3.53343 z m -191.56281,-5.92705 c 1.04722,-2.50636 1.21069,-4.00273 0.51342,-4.7 -0.69727,-0.69727 -1.02295,-0.42718 -1.02295,0.84831 0,1.02919 -0.71908,2.66584 -1.59796,3.63699 -0.87888,0.97115 -1.30232,2.24408 -0.94098,2.82874 1.02203,1.65368 1.40113,1.32859 3.04847,-2.61404 z m 240.49051,1.35136 c 0,-0.72912 -1.125,-2.38256 -2.5,-3.67431 -2.4553,-2.30659 -2.5,-2.31118 -2.5,-0.2561 0,1.15089 0.2731,2.80433 0.607,3.67431 0.7336,1.91184 4.393,2.12517 4.393,0.2561 z m -29,-0.67431 c 0,-0.55 -0.4235,-1 -0.941,-1 -0.5176,0 -1.2191,0.45 -1.559,1 -0.34,0.55 0.083,1 0.9409,1 0.8575,0 1.5591,-0.45 1.5591,-1 z m 13.3878,-4.39118 c -0.6456,-2.07097 -2.1563,-3.56326 -3.6378,-3.59351 -1.1103,-0.0227 -0.9095,3.8183 0.3197,6.115 0.8625,1.61158 1.3512,1.76522 2.5226,0.79307 0.9048,-0.75095 1.2049,-2.00116 0.7955,-3.31456 z m -143.38784,0.4502 c 0,-0.51754 -0.45,-1.2191 -1,-1.55902 -0.55,-0.33992 -1,0.0835 -1,0.94098 0,0.85746 0.45,1.55902 1,1.55902 0.55,0 1,-0.42344 1,-0.94098 z m -30.01531,-6.80902 c 0.008,-0.6875 -0.43469,-1.25 -0.98469,-1.25 -0.55,0 -0.99311,1.2375 -0.98469,2.75 0.0119,2.14294 0.22931,2.41887 0.98469,1.25 0.53316,-0.825 0.97627,-2.0625 0.98469,-2.75 z m 205.53665,1.72637 c 1.4277,-1.57757 1.566,-2.289 0.6275,-3.22752 -1.614,-1.61401 -4.5383,0.21254 -4.9684,3.10328 -0.4101,2.75628 1.8992,2.82238 4.3409,0.12424 z m -78.8364,-7.0757 c 1.6366,-0.63911 12.57,-1.26754 26.1169,-1.50114 18.3229,-0.31596 23.9319,-0.72757 26.25,-1.92635 3.3042,-1.70867 3.7456,-3.93459 1.3131,-6.62247 -1.0932,-1.20795 -1.8389,-4.52186 -2.25,-9.99877 -0.3791,-5.05012 -1.0802,-8.34581 -1.8281,-8.59301 -1.972,-0.65187 -2.5843,4.3015 -1.1996,9.7043 1.1106,4.33342 1.0703,5.48327 -0.2926,8.34121 -2.2668,4.75349 -7.2015,5.9802 -23.2946,5.79077 -12.7639,-0.15023 -17.0017,0.3493 -27,3.18261 -3.6738,1.04107 -4.4695,1.55924 -3,1.95354 1.1,0.29515 2.0832,0.58884 2.1849,0.65264 0.1017,0.0638 1.4517,-0.3787 3,-0.98333 z m 62.3151,-7.90067 c 0,-0.55 -0.45,-1 -1,-1 -0.55,0 -1,0.45 -1,1 0,0.55 0.45,1 1,1 0.55,0 1,-0.45 1,-1 z m 12.4154,-2.29676 c 0.851,-1.34924 0.404,-2.27528 -2.2834,-4.72984 -2.919,-2.66604 -3.2652,-3.48988 -2.7368,-6.51276 0.3326,-1.90335 0.879,-5.03564 1.2142,-6.96064 0.3556,-2.04241 0.1994,-3.5 -0.375,-3.5 -0.5415,0 -1.2472,-1.31381 -1.5683,-2.91957 -0.3554,-1.7766 -1.4125,-3.18255 -2.7004,-3.59131 -3.1545,-1.0012 -3.2534,-0.19213 -0.4767,3.89959 1.381,2.03506 2.511,4.85758 2.511,6.27228 0,2.20517 -0.3571,2.5039 -2.5028,2.09374 -2.4205,-0.46272 -2.4895,-0.32695 -2.1007,4.13342 0.2211,2.53652 0.4473,4.89687 0.5027,5.24522 0.055,0.34835 0.9861,0.8649 2.0682,1.14787 1.0822,0.28298 2.7445,2.14385 3.6941,4.13527 1.8042,3.78329 2.9786,4.10116 4.7539,1.28673 z m -166.68439,-0.3964 c 0.39561,-1.18683 -4.60104,-2.77018 -5.59748,-1.77375 -0.80433,0.80433 2.96098,3.60206 4.26349,3.16789 0.53787,-0.17929 1.13816,-0.80665 1.33399,-1.39414 z m 112.76899,-0.30684 c 0.3399,-0.55 -0.3351,-1 -1.5,-1 -1.165,0 -1.84,0.45 -1.5,1 0.3399,0.55 1.0149,1 1.5,1 0.485,0 1.16,-0.45 1.5,-1 z m -144.08386,-3.90738 c 1.88778,-2.08597 1.88257,-2.09262 -1.63875,-2.09262 -4.25849,0 -6.65455,2.23821 -4.79487,4.47899 1.39819,1.68471 3.43208,0.9303 6.43362,-2.38637 z m 59.39216,2.83238 c -0.1971,-0.59125 -0.7858,-1.075 -1.3083,-1.075 -0.5225,0 -1.1113,0.48375 -1.3084,1.075 -0.1971,0.59125 0.3917,1.075 1.3084,1.075 0.9166,0 1.5054,-0.48375 1.3083,-1.075 z m 147.1917,-6.44883 c 0,-1.40881 -2.9346,-3.47617 -4.9343,-3.47617 -1.8562,0 -1.1517,2.82641 1.0972,4.40159 2.3515,1.64705 3.8371,1.28876 3.8371,-0.92542 z m -178.17071,-2.82847 c 0.25442,-1.32108 -0.15595,-1.73145 -1.47703,-1.47703 -1.00613,0.19376 -1.98787,1.1755 -2.18163,2.18163 -0.25442,1.32108 0.15595,1.73145 1.47703,1.47703 1.00613,-0.19376 1.98787,-1.1755 2.18163,-2.18163 z m 32.79071,-5.02533 c -0.4061,-1.61805 0.1982,-3.54907 1.8916,-6.04441 3.6262,-5.34353 3.4535,-11.27018 -0.4248,-14.57796 l -2.9313,-2.5 2.1767,-4.5 c 1.1971,-2.475 3.1871,-4.94421 4.4222,-5.48713 1.2351,-0.54292 2.2456,-1.8292 2.2456,-2.85841 0,-1.52071 -0.4921,-1.74778 -2.6265,-1.21207 -2.1584,0.54172 -2.5148,0.36825 -2,-0.97338 0.3445,-0.89792 0.6265,-3.36125 0.6265,-5.47407 0,-2.66133 0.7854,-4.77493 2.5566,-6.8799 3.2748,-3.89189 4.2278,-9.18774 2.046,-11.36958 -0.8815,-0.88143 -1.6026,-2.16232 -1.6026,-2.84642 0,-1.62612 -3.3265,-8.83988 -4.0917,-8.87324 -0.8501,-0.0371 -2.9083,7.23921 -2.9083,10.2812 0,1.41623 0.493,2.87967 1.0956,3.25209 1.0877,0.67227 1.0138,1.53812 -1.1481,13.44091 -1.5371,8.46314 -3.9427,45.17593 -3.1288,47.75 0.2174,0.6875 1.2959,1.25 2.3967,1.25 1.608,0 1.8841,-0.46733 1.4046,-2.37763 z m 141.2174,-6.31824 c -1.0236,-1.23337 -1.3084,-1.214 -2.0664,0.1406 -1.2508,2.23501 0.031,3.96488 1.8303,2.47115 1.1119,-0.92275 1.1635,-1.49427 0.2361,-2.61175 z m -108.8382,-4.80564 c -1.4515,-2.71203 -3.9992,-3.38427 -3.9992,-1.05519 0,1.51322 4.0309,4.85908 4.8578,4.03219 0.2632,-0.26318 -0.1232,-1.60283 -0.8586,-2.977 z m 31.0008,1.17582 c 0,-1.27912 -1.1203,-3.37813 -2.4896,-4.66447 -2.4169,-2.27063 -2.5481,-2.28576 -4.5,-0.51932 -2.7175,2.45938 -2.532,3.6785 0.446,2.93105 2.0465,-0.51364 2.5653,-0.18301 3.1085,1.98094 0.8132,3.2402 3.4351,3.44766 3.4351,0.2718 z m 48.4861,0.3694 c 0.5661,-1.78362 0.3123,-4.53467 -1.1349,-12.30244 -0.6846,-3.67437 -2.3512,-2.4848 -2.3512,1.67818 0,5.27697 1.2008,12.58055 2.0685,12.58055 0.4382,0 1.0761,-0.88033 1.4176,-1.95629 z m -20.4861,-11.04371 c 0,-4.28751 -1.4025,-5.39305 -2.3321,-1.83833 -0.5126,1.96035 0.7276,5.83833 1.8672,5.83833 0.2557,0 0.4649,-1.8 0.4649,-4 z m -22,1 c 0,-0.55 -0.45,-1 -1,-1 -0.55,0 -1,0.45 -1,1 0,0.55 0.45,1 1,1 0.55,0 1,-0.45 1,-1 z m -13.8099,-9.25 c 0.2222,-0.6875 0.3471,-3.85715 0.2776,-7.04367 -0.1824,-8.35477 -2.245,-9.81385 -11.6823,-8.26408 -2.9527,0.48488 -6.6008,0.32174 -9.7617,-0.43654 -2.7758,-0.66592 -5.7911,-0.92523 -6.7005,-0.57625 -1.3994,0.53702 -1.1671,1.13637 1.5116,3.90014 2.55,2.63091 3.1652,4.09591 3.1652,7.53756 0,3.85818 0.2179,4.24099 2.25,3.95239 1.8847,-0.26768 2.25,-0.93946 2.25,-4.13831 0,-2.64537 0.5563,-4.13061 1.8107,-4.83368 2.6142,-1.46524 4.8733,-0.26347 4.5033,2.39562 -0.2358,1.69482 0.184,2.25682 1.686,2.25682 1.3286,0 2.1099,-0.77585 2.3275,-2.31115 0.4241,-2.99239 2.8856,-3.90428 4.9545,-1.83543 1.4019,1.40198 1.4517,2.11134 0.3598,5.13091 -0.6969,1.92721 -0.9873,3.95663 -0.6454,4.50984 0.871,1.40942 3.2091,1.25486 3.6937,-0.24417 z m -41.3783,-2.01148 c 0.2286,-1.18678 -0.3045,-1.73852 -1.6795,-1.73852 -2.2933,0 -3.5634,1.49355 -2.5981,3.05537 0.9733,1.57479 3.8939,0.67569 4.2776,-1.31685 z m 95.3786,-3.48852 c 0.2551,-3.90675 -0.1704,-7.03226 -1.3274,-9.75 -1.1657,-2.73817 -1.9284,-8.41642 -2.4179,-18 -0.3932,-7.7 -1.116,-15.07263 -1.6061,-16.38363 -0.4901,-1.31099 -1.1266,-6.93599 -1.4144,-12.5 -0.2877,-5.564 -1.0164,-12.05349 -1.6192,-14.42109 -0.8117,-3.18813 -0.7989,-4.60179 0.049,-5.45 0.6337,-0.63364 1.1453,-4.15402 1.1453,-7.88018 0,-3.7042 0.4804,-7.99834 1.0675,-9.54255 1.0799,-2.84055 -0.5006,-15.32255 -1.9402,-15.32255 -0.3554,0 -1.2388,0.94889 -1.9631,2.10864 -1.0462,1.67517 -1.0707,2.70301 -0.1192,5 0.872,2.10516 0.9089,3.63912 0.1358,5.64136 -1.7208,4.45706 -2.395,20.14179 -1.1928,27.75 0.6084,3.85 1.525,11.725 2.037,17.5 0.5119,5.775 1.3735,12.3 1.9145,14.5 0.541,2.2 0.7621,5.575 0.4914,7.5 -0.419,2.97923 0.3621,10.09423 3.1835,29 1.2102,8.10888 3.0543,8.23781 3.576,0.25 z m 17.8096,2.63298 c 0,-1.16436 -1.8,-3.86386 -4,-5.99889 -3.7911,-3.6791 -4,-4.19533 -4,-9.88298 0,-6.18849 -1.3581,-8.10776 -2.3005,-3.25111 -0.5766,2.9715 0.1257,8.13669 1.3257,9.75 0.4091,0.55 1.0565,2.4625 1.4387,4.25 0.3858,1.80419 1.3232,3.25 2.107,3.25 0.7767,0 1.9742,0.9 2.6611,2 1.6203,2.5945 2.768,2.54599 2.768,-0.11702 z M 267.94114,484.1223 c -0.36018,-0.9386 -0.8736,-1.07457 -1.54027,-0.4079 -0.55,0.55 -0.69104,1.80513 -0.31342,2.78919 0.55526,1.44699 0.84986,1.525 1.54026,0.4079 0.46953,-0.75971 0.61057,-2.01485 0.31343,-2.78919 z m 165.72534,-3.27347 c 0,-0.55 -0.45,-1 -1,-1 -0.55,0 -1,0.45 -1,1 0,0.55 0.45,1 1,1 0.55,0 1,-0.45 1,-1 z m 7.9847,-3.80902 c -0.019,-4.5021 -1.3764,-7.21863 -2.3456,-4.69304 -0.8265,2.15395 -0.8263,7.98155 3e-4,8.80821 1.3085,1.30842 2.3601,-0.53689 2.3453,-4.11517 z M 267.66644,466.72639 c 0,-1.20559 -2.73844,-1.10978 -3.5,0.12244 -1.08086,1.74886 0.52195,3.22667 2.08903,1.92611 0.77603,-0.64405 1.41097,-1.5659 1.41097,-2.04855 z m 67.00004,-6.90894 c 0,-10.27986 -0.4063,-10.79924 -7.309,-9.34488 l -4.191,0.883 -0.7989,7.33533 c -0.9988,9.17184 -0.3269,10.15793 6.9213,10.15793 l 5.3776,0 0,-9.03138 z m -9.5412,4.96485 c -0.3625,-0.58659 -0.4085,-1.31719 -0.1021,-1.62354 0.8226,-0.82264 3.6433,0.46152 3.6433,1.65869 0,1.35725 -2.6971,1.33048 -3.5412,-0.0351 z m 2.6121,-8.34798 c -0.7458,-0.8986 -1.0593,-1.93045 -0.6968,-2.29299 0.934,-0.93393 2.9316,1.29016 2.4518,2.72965 -0.2758,0.82743 -0.8178,0.69257 -1.755,-0.43666 z m 25.4291,10.41451 c -0.4357,-1.37264 -0.1797,-2 0.8159,-2 0.798,0 1.6955,0.9356 1.9945,2.07911 0.762,2.91404 4.7076,2.16296 6.623,-1.26077 1.3668,-2.44314 1.337,-2.86205 -0.3351,-4.70971 -1.1907,-1.31569 -1.63,-2.84634 -1.2507,-4.35769 0.4912,-1.9571 -0.09,-2.6978 -3.6315,-4.63172 -2.5308,-1.38187 -5.4153,-2.16559 -7.2161,-1.96064 -3.255,0.37044 -3.1889,-0.0422 -1.4786,9.2291 0.5462,2.96134 0.5365,5.56983 -0.025,6.61851 -1.1477,2.14442 -0.3711,2.99381 2.7373,2.99381 1.9457,0 2.2804,-0.37912 1.766,-2 z m 70,-12.12197 c 0,-0.75792 -1.0125,-1.52183 -2.25,-1.69758 -1.9301,-0.27412 -2.25,0.13423 -2.25,2.87197 0,3.08571 0.075,3.14199 2.25,1.69758 1.2375,-0.82167 2.25,-2.11406 2.25,-2.87197 z m -89.7247,-15.12803 c 0.6666,-2.3375 1.3274,-6.275 1.4683,-8.75 0.2274,-3.99109 0,-4.53597 -1.9822,-4.81806 -1.9867,-0.28225 -2.1726,0.0121 -1.652,2.61522 0.4744,2.37225 -0.01,3.53945 -2.5114,6.10254 -3.1616,3.2343 -4.1021,7.52848 -1.848,8.43802 3.7344,1.50688 5.3213,0.6344 6.5253,-3.58772 z m 28.0138,-6.42019 c 0.2679,-7.56793 0.1333,-8.21965 -1.8253,-8.8413 -2.7433,-0.87069 -3.7135,0.16082 -2.1721,2.30945 3.2631,4.54875 2.0302,7.20204 -3.3468,7.20204 -2.472,0 -3.477,0.52552 -3.9689,2.07536 -0.7849,2.47314 -0.8096,2.44296 3.5697,4.36725 6.5806,2.89159 7.4165,2.12371 7.7434,-7.1128 z m -15.3553,0.92019 c -0.8416,-5.80509 -1.1093,-6.31178 -2.9587,-5.60207 -0.9357,0.35906 -1.2837,1.42183 -0.968,2.95633 0.2711,1.31766 0.7264,3.52074 1.0119,4.89574 0.2855,1.375 1.2131,2.5 2.0613,2.5 1.2698,0 1.4206,-0.83895 0.8535,-4.75 z m 75.8667,0.40932 c 0.2829,-0.73738 0.098,-1.97488 -0.4121,-2.75 -0.768,-1.16837 -1.1796,-1.07745 -2.4074,0.53181 -0.8146,1.06762 -1.481,2.30512 -1.481,2.75 0,1.3614 3.752,0.89741 4.3005,-0.53181 z m -2.3005,-9.65932 c 0,-1.94919 -1.0607,-2.606 -2.2645,-1.40223 -0.8011,0.80111 0.2474,3.40223 1.3715,3.40223 0.4911,0 0.893,-0.9 0.893,-2 z m 12,0.16667 c 0,-1.30208 -1.1888,-2.16804 -2.1558,-1.57039 -1.0342,0.63919 -0.1425,2.40372 1.2148,2.40372 0.5175,0 0.941,-0.375 0.941,-0.83333 z m -89,-7.76238 c 0,-2.18546 -3.1828,-7.40429 -4.5156,-7.40429 -1.4876,0 -3.4844,2.12042 -3.4844,3.7 0,0.715 0.8962,1.3 1.9915,1.3 1.0953,0 2.5536,0.9 3.2405,2 1.503,2.40663 2.768,2.59139 2.768,0.40429 z m 22.5,-1.90451 c 0,-2.50443 -4.7965,-4.89317 -8.1402,-4.05395 -3.4952,0.87723 -2.6422,3.51233 1.6402,5.06662 4.6272,1.67946 6.5,1.38769 6.5,-1.01267 z m -45.5,-2.49978 c 0,-0.55 -0.45,-1 -1,-1 -0.55,0 -1,0.45 -1,1 0,0.55 0.45,1 1,1 0.55,0 1,-0.45 1,-1 z m 69.5675,-18.5 c 0.1271,-9.9 0.025,-16.875 -0.2259,-15.5 -0.2514,1.375 -1.3545,5.15677 -2.4513,8.40392 -1.5664,4.63749 -1.8752,7.46671 -1.4396,13.18936 0.3365,4.42075 0.1592,7.52975 -0.4508,7.90677 -1.5346,0.94843 0.8332,4.67913 2.7357,4.31028 1.3863,-0.26878 1.6316,-2.72051 1.8319,-18.31033 z m -75.6039,11.0438 c 1.5944,-1.92111 0.4883,-3.5438 -2.4157,-3.5438 -2.3281,0 -4.0583,2.36519 -2.9922,4.09024 0.8658,1.40088 4.0596,1.07817 5.4079,-0.54644 z m 52.8447,-27.6188 c -0.1971,-0.59125 -0.7858,-1.075 -1.3083,-1.075 -0.5225,0 -1.1113,0.48375 -1.3084,1.075 -0.1971,0.59125 0.3917,1.075 1.3084,1.075 0.9166,0 1.5054,-0.48375 1.3083,-1.075 z M -59.326583,865.17872 c -6.67644,-1.80904 -7.83449,-2.70649 -10.10351,-7.82989 -1.45232,-3.27932 -1.5918,-4.84091 -0.77413,-8.66732 1.03639,-4.84994 3.54719,-7.13711 4.46337,-4.06582 1.56218,5.23689 2.99961,6.73559 6.75963,7.04773 4.19304,0.3481 7.79829,-1.85819 15.29228,-9.35833 8.02607,-8.03265 9.33866,-13.80118 4.22692,-18.57626 -2.59803,-2.42692 -3.68763,-2.81753 -6.42633,-2.30374 -2.59724,0.48724 -3.67941,0.17307 -5.09378,-1.47879 -1.29618,-1.51382 -2.96814,-2.09747 -6.00857,-2.09747 -9.49048,0 -12.34286,-3.89794 -12.34286,-16.8672 0,-7.50259 0.80257,-10.85711 4.17637,-17.45616 3.83353,-7.49826 5.12002,-9.67773 6.28151,-10.64168 0.72982,-0.6057 1.90737,-2.54885 2.61678,-4.31812 0.70942,-1.76926 3.6311,-6.81684 6.49263,-11.21684 5.83979,-8.97949 11.65332,-20.03952 13.93969,-26.51979 1.67826,-4.7567 5.49302,-22.6461 5.49302,-25.75965 0,-2.29398 4.37974,-16.21213 6.6231,-21.04722 1.10776,-2.38754 1.3584,-4.7871 0.88786,-8.5 -0.99958,-7.88737 -1.35129,-8.55124 -5.70782,-10.77377 -7.26805,-3.70788 -12.23763,-7.91585 -15.91539,-13.47628 -1.98674,-3.00376 -4.28094,-6.24031 -5.09822,-7.19234 -0.81729,-0.95202 -2.19568,-3.75595 -3.0631,-6.23095 -6.57261,-18.75357 -6.73605,-19 -12.60184,-19 -4.52923,0 -10.27067,2.84443 -17.124593,8.48388 -5.92302,4.8735 -16.96533,17.30806 -16.98685,19.12862 -0.0171,1.44936 -4.992394,7.89278 -9.752494,12.63038 -4.79234,4.76968 -7.26066,4.94696 -7.26066,0.52147 0,-1.7796 -1.19978,-5.60696 -2.66617,-8.50524 -3.43722,-6.79354 -2.63658,-8.41115 6.9724,-14.08697 3.95657,-2.33706 11.49255,-8.39437 16.746624,-13.46067 5.25406,-5.06631 13.51452,-11.91147 18.356573,-15.21147 4.84205,-3.3 10.66827,-7.6242 12.94715,-9.60934 5.66358,-4.93354 10.95,-7.27935 14.70987,-6.52737 2.36714,0.47343 5.30426,-0.48849 13.3686,-4.37828 5.68423,-2.74176 11.23686,-4.98501 12.33918,-4.98501 1.10232,0 2.96751,-0.7875 4.14488,-1.75 l 2.14067,-1.75 -1.99253,-3.88818 c -1.0959,-2.13849 -3.35934,-4.71938 -5.02989,-5.7353 -3.54898,-2.15826 -3.71062,-3.2601 -1.10509,-7.53315 1.67489,-2.7468 1.74344,-3.39595 0.52806,-5 -0.76819,-1.01385 -1.41102,-2.59634 -1.42852,-3.51664 -0.0175,-0.92031 -1.23729,-3.10593 -2.71067,-4.85694 -2.47784,-2.94474 -2.581,-3.41953 -1.37461,-6.32673 0.71734,-1.72868 1.5172,-4.56387 1.77746,-6.30043 0.93032,-6.20738 6.70259,-9.52269 20.7760201,-11.93269 13.35744,-2.28739 23.4782699,-1.50603 23.5135399,1.81531 0.007,0.70111 1.95728,2.95275 4.33297,5.00364 4.47672,3.86468 5.70888,6.57916 7.67548,16.90927 0.60496,3.17769 1.91422,6.39912 3.00017,7.38189 1.69379,1.53286 2.32291,1.58404 5.20232,0.42325 1.80154,-0.72626 4.95408,-2.36061 7.00565,-3.63189 2.05157,-1.27127 4.09392,-2.31141 4.53856,-2.31141 0.44463,0 2.56927,-0.89773 4.7214,-1.99495 3.26418,-1.66417 4.13026,-2.78337 5.22345,-6.75 2.69131,-9.7654 3.55506,-18.30161 3.87089,-38.25505 0.41791,-26.40242 1.00673,-36.86997 2.25657,-40.11549 0.55397,-1.43851 1.32778,-7.40101 1.71958,-13.25 0.69076,-10.31214 0.78401,-10.63451 3.07589,-10.63451 2.30542,0 2.36658,0.22742 2.48761,9.25 0.17499,13.04555 -0.19817,19.99719 -1.17176,21.82856 -0.46155,0.8682 -1.10396,9.6432 -1.42759,19.5 -0.32362,9.85679 -1.00363,21.29644 -1.51113,25.42144 -1.52322,12.38094 -1.97208,23.44914 -1.01385,24.9996 0.75141,1.2158 2.28527,0.76865 9.20099,-2.68225 4.56459,-2.2777 10.99926,-5.32298 14.29926,-6.76729 3.3,-1.44431 6.675,-3.03942 7.5,-3.54469 0.825,-0.50526 3.910063,-2.06005 6.855703,-3.45508 l 5.35569,-2.53642 -0.69463,-4.25694 c -1.40152,-8.589 -0.1918,-55.24815 1.55786,-60.08673 0.97605,-2.69924 0.91344,-3.81568 -0.34937,-6.22941 -1.38034,-2.63839 -2.29365,-3.05895 -8.8819,-4.08992 -8.670053,-1.35675 -15.198243,-3.64146 -19.343353,-6.76971 -1.65,-1.24524 -4.22451,-2.56572 -5.72114,-2.93442 -1.49662,-0.36869 -3.1767,-1.52159 -3.7335,-2.56198 -0.79569,-1.48676 -1.68939,-31.70832 -1.15851,-39.17647 0.17237,-2.42484 6.68132,-3.89649 17.72917,-4.0085 19.273183,-0.19541 36.790823,-2.44375 40.153043,-5.15352 1.92885,-1.55456 18.19563,-1.71902 21.86949,-0.22111 1.72621,0.70381 6.78871,4.83781 11.25,9.18667 6.25149,6.09394 8.11145,8.53536 8.11145,10.64726 0,3.82788 -2.66112,8.56157 -5.39798,9.60212 -2.11106,0.80262 -2.37441,1.73302 -3.17218,11.20704 -0.4785,5.68246 -0.88346,19.10675 -0.89992,29.83175 -0.0242,15.74189 0.28384,20.28022 1.59812,23.54838 0.89542,2.22661 1.93399,6.05161 2.30794,8.5 0.37394,2.44839 1.15439,6.72009 1.73433,9.49267 0.93549,4.47241 0.81657,5.43124 -1.0542,8.5 -2.4498,4.01859 -2.73444,5.71701 -0.67115,4.00463 0.79472,-0.65956 2.48222,-1.05216 3.75,-0.87244 3.04971,0.43232 3.46595,3.75871 0.84804,6.77718 -1.12365,1.29558 -2.043,2.97957 -2.043,3.74219 0,0.76262 -1.8,3.15095 -4,5.30739 -2.2,2.15644 -4,4.31641 -4,4.79994 0,1.37343 -11.73684,10.40483 -17.39857,13.38805 -5.29247,2.78864 -18.366,7.40136 -19.01157,6.70783 -3.80946,-4.09244 -7.87472,-10.95354 -8.43513,-14.23631 -1.00619,-5.89404 -5.60172,-6.36525 -11.56027,-1.18535 -1.59805,1.38921 -3.708993,2.52584 -4.690983,2.52584 -0.982,0 -2.02703,0.39089 -2.3223,0.86865 -0.29527,0.47775 -2.2604,1.14425 -4.36695,1.4811 -2.20161,0.35205 -4.83625,1.68345 -6.19648,3.13136 -1.30151,1.38539 -3.1095,2.51889 -4.01775,2.51889 -0.90825,0 -2.70825,1.125 -4,2.5 -1.29175,1.375 -3.36066,2.5 -4.59759,2.5 -1.23693,0 -3.56091,1.10393 -5.16441,2.45319 -2.76208,2.32414 -2.92278,2.88962 -3.05495,10.75 -0.0767,4.56324 -0.57503,9.78418 -1.10733,11.60209 -0.97409,3.32671 -9.19142,16.53016 -10.97303,17.63125 -0.52623,0.32523 -1.5048,2.27256 -2.1746,4.3274 -0.6698,2.05484 -2.19828,4.91378 -3.39661,6.35321 -3.79104,4.55379 -5.01941,8.64462 -3.69528,12.30642 0.64009,1.77014 1.1638,4.22133 1.1638,5.4471 0,1.22576 0.63539,3.45736 1.41197,4.95912 1.65403,3.19852 0.81557,9.33101 -2.31203,16.91034 -1.08029,2.61793 -2.70039,8.58488 -3.60022,13.25988 -0.89983,4.675 -2.68466,10.30212 -3.96629,12.5047 -2.01152,3.45697 -2.34015,5.41079 -2.40274,14.28511 -0.0729,10.33831 -1.16229,16.58225 -3.70052,21.21019 -1.45761,2.65764 -4.43017,26.61517 -4.43017,35.70517 0,2.98447 -0.43337,6.23608 -0.96305,7.22578 -0.6851,1.28013 -0.37487,3.35359 1.07491,7.18426 1.12088,2.96164 2.43362,6.65989 2.91721,8.21834 2.17563,7.01143 8.43377,16.32039 15.15542,22.5436 l 7.00924,6.48948 -0.6863,6.40862 c -0.37747,3.52474 -1.31281,7.90805 -2.07853,9.74068 -1.35147,3.23453 -1.27617,3.48651 2.57279,8.60899 2.18076,2.90232 4.64751,5.65889 5.48168,6.12571 2.44939,1.37075 4.2334,5.81395 4.98973,12.42724 l 0.70653,6.17788 -3.33981,1.6891 c -3.70725,1.87492 -7.83982,5.36245 -7.83982,6.61612 0,0.44678 -1.2375,2.61185 -2.75,4.81127 -3.09625,4.50243 -8.46986,6.74662 -18.53439,7.74054 -5.10944,0.50458 -6.07209,0.30095 -8.25,-1.74509 -2.83449,-2.66286 -3.25098,-7.03946 -0.89418,-9.39626 2.05076,-2.05076 4.0923,-1.99473 5.28986,0.14519 0.83733,1.49622 1.2789,1.54631 3.43923,0.39014 2.81881,-1.50858 4.69948,-5.01002 4.69948,-8.74952 0,-1.40176 0.62018,-3.74309 1.37818,-5.20295 3.99022,-7.68492 3.98341,-7.62124 1.27432,-11.91271 -3.80029,-6.02005 -7.91341,-8.59608 -12.45234,-7.79885 -10.70777,1.88073 -12.33358,1.83474 -15.4046199,-0.43578 -2.179,-1.611 -3.29035,-1.91214 -4.09331,-1.10918 -0.60623,0.60623 -1.75725,1.10223 -2.55783997,1.10223 -0.80058,0 -2.94998003,1.13981 -4.77643003,2.53291 -2.36757,1.80584 -4.35009,2.4636 -6.9064701,2.29144 -4.35131,-0.29305 -5.03073,0.65163 -5.88234,8.17883 -0.48691,4.3037 -0.21766,6.86203 1.06587,10.12757 0.95445,2.4283 1.76786,7.37197 1.83106,11.12866 0.10379,6.16926 -0.13053,6.99341 -2.68375,9.43955 -2.65917,2.54765 -3.5008,2.72165 -17.02399,3.51968 -7.82458,0.46174 -14.66342,1.27644 -15.19743,1.81045 -1.2797,1.2797 -3.90089,1.10621 -10.56393,-0.6992 z m 1.24302,-70.06002 c 1.5125,-2.32657 2.75,-4.45614 2.75,-4.73238 0,-0.27625 1.75464,-3.36901 3.8992,-6.87281 2.14457,-3.5038 5.22692,-9.02423 6.84967,-12.26761 6.17231,-12.33653 10.13577,-19.28171 12.15728,-21.30322 1.29202,-1.29202 2.09385,-3.37712 2.09385,-5.44491 0,-1.84308 1.125,-5.4669 2.5,-8.05292 1.375,-2.58601 2.5,-5.59387 2.5,-6.68412 0,-1.09025 0.73596,-3.10548 1.63546,-4.47829 2.05729,-3.13983 1.0333,-4.3488 -1.63676,-1.93243 -2.58509,2.33947 -4.9987,7.18244 -4.9987,10.03001 0,1.22316 -0.675,2.78412 -1.5,3.46881 -0.825,0.68469 -1.5,1.87444 -1.5,2.64388 0,0.76945 -1.07748,3.07685 -2.3944,5.12756 -1.31691,2.05071 -2.67572,5.35428 -3.01955,7.34127 -0.34384,1.98699 -1.5327,4.43402 -2.6419,5.43783 -1.1092,1.00382 -2.89139,3.80243 -3.96042,6.21913 -1.06902,2.41671 -3.07769,5.74171 -4.4637,7.3889 -1.38602,1.64718 -2.52003,3.48196 -2.52003,4.07729 0,0.59532 -1.83805,3.51688 -4.08455,6.49235 -4.28466,5.67499 -7.70842,15.85797 -6.4047,19.04891 0.59807,1.46381 0.80056,1.49732 1.34659,0.22288 0.35346,-0.825 1.88016,-3.40356 3.39266,-5.73013 z m 24.25,3.73013 c 1.14099,-1.84616 -0.48952,-3.07598 -2.5887,-1.95253 -1.08202,0.57908 -1.70316,1.4803 -1.38029,2.0027 0.77111,1.24769 3.18573,1.21717 3.96899,-0.0502 z M -3.7760929,770.138 c -0.30661,-0.79901 -0.55747,-1.64094 -0.55747,-1.87096 0,-0.23001 -0.675,-0.41821 -1.5,-0.41821 -1.45735,0 -2.10509,3.06157 -0.90223,4.26443 1.10565,1.10565 3.5229,-0.50759 2.9597,-1.97526 z m -8.5574701,-48.78917 c 0,-0.825 -0.45,-1.5 -1,-1.5 -0.55,0 -1,0.675 -1,1.5 0,0.825 0.45,1.5 1,1.5 0.55,0 1,-0.675 1,-1.5 z m -5.93426,-4.53518 c 2.14968,-1.15047 2.63839,-3.97251 0.68426,-3.95117 -5.71588,0.0624 -7.87425,3.67222 -2.93426,4.9074 0.17366,0.0434 1.18616,-0.38688 2.25,-0.95623 z m -4.06574,-6.20811 c 0,-0.61889 0.95371,-3.09537 2.11936,-5.50327 1.16565,-2.40791 2.47613,-5.81248 2.91218,-7.56573 0.92303,-3.71123 2.67354,-8.84977 4.56483,-13.39985 2.0278,-4.87849 -0.0541,-5.08298 -6.46823,-0.63533 -1.73303,1.20171 -6.70474,26.6055 -5.56712,28.4462 0.71015,1.14905 2.43898,0.19778 2.43898,-1.34202 z m 47.55385,-19.84384 c 1.03052,-1.66742 -1.28721,-3.57951 -2.66672,-2.2 -1.15392,1.15392 -0.43172,3.28713 1.11287,3.28713 0.48508,0 1.18431,-0.48921 1.55385,-1.08713 z m 6.94615,-31.2462 c 0,-2.60655 -1.9609,-2.44297 -2.33415,0.19471 -0.22908,1.61892 0.0853,2.22156 1,1.91667 0.73378,-0.24459 1.33415,-1.19472 1.33415,-2.11138 z m -55.5,-0.66667 c 0,-0.55 -0.675,-1 -1.5,-1 -0.825,0 -1.5,0.45 -1.5,1 0,0.55 0.675,1 1.5,1 0.825,0 1.5,-0.45 1.5,-1 z m 61.40282,-22.46881 c 0.34079,-1.35785 0.16858,-4.48148 -0.3827,-6.9414 -0.55128,-2.45992 -0.78122,-5.06146 -0.51099,-5.78119 0.27024,-0.71973 0.0905,-3.3336 -0.39933,-5.8086 -0.72401,-3.65799 -0.91117,-2.11431 -1.00023,8.25 -0.10203,11.87303 0.83705,16.08315 2.29325,10.28119 z m -12.32613,-0.59071 c 3.86367,-7.73444 4.21246,-9.89732 3.68666,-22.8613 -0.5131,-12.65094 -0.47006,-13.00608 1.83907,-15.1754 l 2.36446,-2.2213 -1.98344,-3.20927 c -1.09089,-1.7651 -1.99939,-4.28116 -2.01888,-5.59124 -0.0195,-1.31009 -0.67854,-3.50697 -1.46456,-4.88197 -0.78602,-1.375 -1.44508,-4.6375 -1.46456,-7.25 -0.0384,-5.1498 -0.44592,-5.45605 -4.47704,-3.36468 -5.07601,2.63347 -6.99755,7.1754 -4.06525,9.60899 1.95832,1.62527 0.95807,8.91328 -1.5105,11.00569 -0.97331,0.825 -2.0958,2.625 -2.49443,4 -0.39863,1.375 -1.4188,3.29026 -2.26704,4.25613 -0.84824,0.96587 -1.25626,2.04212 -0.90672,2.39166 0.34954,0.34955 1.47669,-0.40325 2.50478,-1.67289 1.19935,-1.48113 2.46263,-2.08071 3.525,-1.67304 1.37982,0.52948 1.65046,2.18217 1.62396,9.91676 -0.0222,6.4779 -0.46561,9.85447 -1.46797,11.1787 -1.80621,2.38619 -0.96308,3.88436 1.70877,3.03635 2.7448,-0.87117 3.86676,1.19083 3.13904,5.76912 -1.06326,6.6893 1.46796,11.26324 3.72865,6.73769 z m -13.07669,-8.10715 c 0,-2.84166 -0.18456,-4.97916 -0.41013,-4.75 -0.91292,0.92748 -1.38341,9.91667 -0.51902,9.91667 0.51103,0 0.92915,-2.325 0.92915,-5.16667 z m -35.54362,-5.58333 c 0.38181,-5.3625 1.33533,-11.96918 2.11891,-14.6815 0.78359,-2.71233 1.42471,-6.26985 1.42471,-7.90561 0,-1.6719 1.15311,-4.48592 2.63359,-6.42692 3.56435,-4.67311 1.67158,-5.74865 -4.82208,-2.7401 -2.70619,1.2538 -5.19586,2.55514 -5.53259,2.89188 -0.33674,0.33674 -1.57624,0.61225 -2.75446,0.61225 -1.17821,0 -3.01571,0.66069 -4.08333,1.4682 -1.06762,0.8075 -3.15748,1.4825 -4.64413,1.5 -2.26161,0.0266 -2.87305,0.64415 -3.74442,3.7818 -1.30152,4.68654 -1.35343,9.94603 -0.10579,10.71711 1.12298,0.69404 6.46443,8.49363 8.4614,12.35535 1.98884,3.846 6.54906,8.17754 8.60925,8.17754 1.49286,0 1.84493,-1.40746 2.43894,-9.75 z m 29.4287101,-3.5045 c 0.7618,-3.62946 1.06587,-7.41948 0.67571,-8.42226 -0.66331,-1.70483 -0.82666,-1.67954 -2.51521,0.3895 -1.88305,2.30736 -3.67264,12.46365 -2.52373,14.32263 1.43482,2.32158 3.04205,0.005 4.36323,-6.28987 z M 43.156777,592.84088 c 0.57747,-1.92063 1.98953,-5.29205 3.1379,-7.49205 1.14838,-2.2 2.40416,-5.35 2.79062,-7 0.92029,-3.92916 6.5618,-16.53114 8.36558,-18.68699 1.57105,-1.8777 0.8783,-3.81301 -1.3649,-3.81301 -0.80433,0 -3.14027,1.02592 -5.19098,2.27982 -7.00346,4.28225 -7.73367,4.70505 -12.51641,7.24729 -6.76149,3.59402 -7.43814,5.64441 -4.65218,14.097 1.24646,3.78174 2.86788,7.58632 3.60316,8.45463 0.73528,0.86831 1.33687,3.2638 1.33687,5.32332 0,3.00328 0.34054,3.67901 1.72019,3.41331 0.95747,-0.18439 2.18574,-1.87964 2.77015,-3.82332 z m 13.50966,-18.19205 c 0,-1.61542 -0.29571,-1.90429 -1.11287,-1.08713 -0.61207,0.61207 -0.81052,1.60207 -0.44098,2.2 1.03439,1.67368 1.55385,1.30164 1.55385,-1.11287 z m -54.9999999,-6.8 c 0,-0.55 -0.45,-1 -0.99999997,-1 -0.55,0 -1,0.45 -1,1 0,0.55 0.45,1 1,1 0.54999997,0 0.99999997,-0.45 0.99999997,-1 z m 21.9195299,-5.93021 c 1.81156,-1.57116 2.02604,-2.30298 1.15301,-3.93425 -0.5899,-1.10223 -1.07943,-2.82114 -1.08785,-3.8198 -0.008,-0.99866 -0.44215,-2.49074 -0.96384,-3.31574 -1.57678,-2.49354 -3.68957,0.7427 -4.33698,6.64311 -0.75666,6.89603 0.83593,8.24255 5.23566,4.42668 z M 5.9621771,553.42334 c 2.33035,-1.76733 1.34681,-6.57451 -1.34513,-6.57451 -2.48098,0 -3.05738,1.21613 -2.32115,4.89729 0.69181,3.45904 1.08166,3.63739 3.66628,1.67722 z m 14.6097999,-10.9852 c -0.50112,-1.14912 -1.4135,-3.35437 -2.02751,-4.90057 -0.73467,-1.85003 -1.62028,-2.61789 -2.59011,-2.24573 -0.81055,0.31104 -2.66942,0.82361 -4.13082,1.13905 -1.46141,0.31544 -3.5570999,0.94838 -4.6570999,1.40652 -1.1,0.45815 -4.13581,1.66064 -6.74624997,2.67221 -3.00670003,1.16512 -4.74763003,2.44629 -4.75000003,3.49559 -0.004,1.87853 3.09194,1.48996 6.46876,-0.81183 2.93839,-2.00294 8.4581499,-1.58178 13.5274899,1.03214 4.79725,2.47363 6.4941,1.85537 4.90554,-1.78738 z m -28.9973399,-7.51141 c 0.91587,-0.5798 -0.39484,-0.83667 -3.7489101,-0.73469 -2.83641,0.0862 -5.1576,0.49429 -5.1582,0.90679 -0.002,1.04965 7.1969,0.91057 8.9071101,-0.1721 z M 158.9442,519.8374 c 0.94723,-1.10629 1.72224,-2.72888 1.72224,-3.60576 0,-1.09972 -0.93068,-0.59803 -3,1.61719 -1.65,1.76633 -3,3.38892 -3,3.60576 0,1.17391 2.79155,0.11858 4.27776,-1.61719 z m -0.27776,-27.98857 c 0,-1.1 -0.42344,-2 -0.94098,-2 -1.34235,0 -2.28822,1.82013 -1.55902,3 1.04512,1.69104 2.5,1.10908 2.5,-1 z m -4,-35 c 0,-0.55 -0.47656,-1 -1.05902,-1 -0.58246,0 -0.7809,0.45 -0.44098,1 0.33992,0.55 0.81648,1 1.05902,1 0.24254,0 0.44098,-0.45 0.44098,-1 z m -27,-5 c 0,-0.55 -0.70156,-1 -1.55902,-1 -0.85746,0 -1.2809,0.45 -0.94098,1 0.33992,0.55 1.04148,1 1.55902,1 0.51754,0 0.94098,-0.45 0.94098,-1 z m 8,-4 c 0.76838,-1.43574 0.75217,-2.59455 -0.0575,-4.10736 -1.57606,-2.9449 -3.11683,-1.0141 -2.33004,2.91986 0.74771,3.73855 0.96451,3.84638 2.3875,1.1875 z m 6,-14.5 c 0,-0.825 -0.675,-1.5 -1.5,-1.5 -0.825,0 -1.5,0.675 -1.5,1.5 0,0.825 0.675,1.5 1.5,1.5 0.825,0 1.5,-0.675 1.5,-1.5 z m -56.027903,-4.03362 c -1.55477,-1.87339 -2.9721,-1.88105 -2.9721,-0.0161 0,1.75865 3.33594,3.88792 3.84454,2.45389 0.1895,-0.53429 -0.2031,-1.63131 -0.87244,-2.43782 z m 23.027903,-4.26638 c 0,-1.54 0.48921,-3.28921 1.08713,-3.88713 0.78285,-0.78285 0.76422,-1.2867 -0.0665,-1.80014 -1.51874,-0.93863 -1.63087,-0.7401 -2.39326,4.23727 -0.40264,2.62867 -0.26498,4.25 0.36084,4.25 0.5565,0 1.01182,-1.26 1.01182,-2.8 z m 17.38557,-5.45 c 3.50774,-8.42448 3.79956,-11.75 1.0311,-11.75 -0.88749,0 -1.41667,1.05392 -1.41667,2.82144 0,1.55179 -0.85863,4.58669 -1.90807,6.74423 -1.04945,2.15753 -1.69789,4.26289 -1.44099,4.67856 0.98632,1.5959 2.43425,0.62887 3.73463,-2.49423 z m -10.18557,-0.95 c -0.93333,-0.93333 -1.46667,-0.93333 -2.4,0 -0.93333,0.93333 -0.66667,1.2 1.2,1.2 1.86667,0 2.13333,-0.26667 1.2,-1.2 z m 29.8,-26.8 c 0,-0.55 -0.675,-1 -1.5,-1 -0.825,0 -1.5,0.45 -1.5,1 0,0.55 0.675,1 1.5,1 0.825,0 1.5,-0.45 1.5,-1 z m 195.44624,138.52275 c -1.6842,-1.28481 -1.7442,-1.6199 -0.4462,-2.48843 2.0992,-1.40465 2.9692,-1.27812 3.6641,0.5329 0.9463,2.46588 -0.9992,3.64813 -3.2179,1.95553 z M 46.666437,440.34883 c -0.68469,-0.825 -1.88407,-1.5 -2.66529,-1.5 -0.78121,0 -3.65111,-2.08658 -6.37755,-4.63684 -5.47666,-5.12278 -6.16371,-7.8118 -3.11934,-12.20879 1.0108,-1.4599 3.29876,-5.69285 5.08435,-9.40654 3.52411,-7.32948 9.48035,-13.14249 15.1251,-14.76139 4.11562,-1.18034 4.9486,-0.62349 4.97019,3.32258 0.01,1.75504 0.68289,7.24098 1.49619,12.19098 0.81331,4.95 1.48045,12.18948 1.48254,16.08774 l 0.004,7.08773 -5.43705,2.66227 c -6.18428,3.02805 -8.77783,3.31342 -10.56314,1.16226 z"
       style="fill:#000000" />
  </g>
</svg>
